<svg width="24" height="24" viewBox="0 0 24 24" fill="none" xmlns="http://www.w3.org/2000/svg">
<path d="M6.9999 13C6.4799 12.1035 5.9249 10.2245 8.0039 7.878C8.6104 7.3075 9.4069 6.558 10.8619 6.1665C12.4209 5.4335 13.2004 4.26 12.1614 2.5C12.9409 2.989 14.4999 4.8465 14.4999 8.3665" stroke="black" stroke-width="2" stroke-linecap="round" stroke-linejoin="round"/>
<path d="M8.1265 13.965C4 11.785 2.255 15.0975 2 16.8775C4 16.8775 6.3395 18.333 7.3605 19.789C9.1985 22.119 12.0405 21.569 13.2315 21.0025C16.9075 19.061 18.1665 19.2225 18.3365 19.5465C18.5415 21.0995 19.1025 21.488 19.358 21.488C21.196 21.682 21.8255 19.4655 21.9105 18.333C22.319 13.6735 21.23 13.4795 20.6345 13.965C18.1835 16.877 16.72 17.4435 16.2945 17.3625C14.457 16.974 14.678 16.23 15.0185 15.906C18.286 13.1885 18.252 7.17 17.8265 4.5C16.6015 7.4125 14.593 8.6255 13.742 8.8685C8.637 10.2275 7.871 12.8325 8.1265 13.965Z" stroke="black" stroke-width="2" stroke-linecap="round" stroke-linejoin="round"/>
<path d="M6 16.707C6.55228 16.707 7 16.2593 7 15.707C7 15.1547 6.55228 14.707 6 14.707C5.44772 14.707 5 15.1547 5 15.707C5 16.2593 5.44772 16.707 6 16.707Z" fill="black"/>
</svg>
